<?xml version="1.0" standalone="no"?>
<!DOCTYPE svg PUBLIC "-//W3C//DTD SVG 20010904//EN"
 "http://www.w3.org/TR/2001/REC-SVG-20010904/DTD/svg10.dtd">
<svg version="1.0" xmlns="http://www.w3.org/2000/svg"
 width="800.000000pt" height="800.000000pt" viewBox="0 0 800.000000 800.000000"
 preserveAspectRatio="xMidYMid meet">
<metadata>
Created by potrace 1.14, written by Peter Selinger 2001-2017
</metadata>
<g transform="translate(0.000000,800.000000) scale(0.100000,-0.100000)"
fill="#000000" stroke="none">
<path d="M3858 5663 c-9 -10 -22 -31 -28 -47 -9 -25 -8 -33 9 -49 26 -26 51
-16 51 22 0 45 10 61 37 61 38 0 22 25 -18 28 -24 2 -40 -3 -51 -15z"/>
<path d="M4002 5665 c-36 -16 -50 -41 -33 -58 8 -8 20 -6 46 6 20 9 45 17 56
17 15 0 20 5 17 23 -4 27 -39 33 -86 12z"/>
<path d="M3750 5595 c-6 -8 -23 -15 -38 -17 -30 -3 -43 -35 -20 -49 16 -11 88
-12 89 -1 0 4 2 21 4 39 5 35 -16 51 -35 28z"/>
<path d="M4083 5600 c-13 -5 -23 -18 -23 -30 0 -16 6 -20 35 -20 19 0 53 -7
75 -16 29 -12 44 -14 52 -6 38 38 -78 98 -139 72z"/>
<path d="M4140 5491 c0 -6 17 -33 38 -60 36 -49 66 -64 75 -38 5 14 -17 63
-41 90 -16 18 -72 24 -72 8z"/>
<path d="M3652 5437 c-38 -26 -38 -51 1 -55 34 -4 97 23 97 42 0 12 -41 37
-58 35 -4 0 -22 -10 -40 -22z"/>
<path d="M4125 5370 c-4 -6 -1 -26 5 -46 7 -19 10 -37 8 -40 -3 -2 -31 1 -63
7 -32 6 -109 9 -172 7 l-113 -3 -9 28 c-9 26 -13 27 -53 21 -43 -6 -82 -37
-75 -58 2 -6 23 -10 48 -9 44 3 44 3 -29 -27 -236 -97 -401 -281 -479 -537
-24 -80 -27 -103 -27 -253 0 -148 3 -176 27 -265 15 -57 51 -149 83 -213 44
-91 69 -127 122 -181 37 -37 91 -81 119 -97 50 -27 66 -44 43 -44 -18 0 -159
-141 -209 -209 -143 -195 -224 -438 -265 -801 -9 -74 -16 -163 -16 -197 l0
-63 30 0 30 0 0 95 c0 115 32 350 65 483 28 111 64 212 75 212 7 0 89 -92 104
-117 4 -7 0 -50 -8 -95 -17 -88 -41 -323 -52 -500 l-7 -108 394 0 c383 -1 744
-13 803 -26 l29 -7 -7 94 c-18 233 -53 518 -71 579 -3 11 18 34 60 68 55 44
85 61 85 49 0 -1 11 -47 25 -102 14 -55 32 -138 40 -185 13 -80 55 -448 55
-491 0 -14 7 -19 27 -19 l26 0 -6 113 c-19 328 -102 717 -189 892 -43 86 -130
205 -193 264 -36 33 -70 61 -75 61 -22 0 -7 16 32 35 47 23 141 112 185 176
89 129 151 313 172 512 39 357 -137 696 -444 853 l-60 31 -5 52 c-5 50 -19 70
-47 71 -6 0 -15 -5 -18 -10z m30 -167 c189 -68 343 -218 429 -418 65 -151 80
-298 50 -476 -55 -319 -201 -539 -414 -620 -74 -28 -82 -23 -20 14 169 98 248
181 289 305 25 73 28 194 7 292 -8 36 -13 65 -12 65 14 0 42 28 44 45 5 31
-89 117 -177 163 -145 77 -289 110 -466 110 -137 -1 -228 -18 -340 -62 -99
-40 -154 -79 -199 -140 -44 -59 -48 -101 -11 -101 23 0 25 -3 18 -27 -4 -16
-8 -84 -7 -153 0 -104 4 -135 22 -185 50 -135 138 -219 286 -275 44 -17 95
-37 111 -45 52 -24 -3 -18 -89 10 -197 64 -295 156 -379 355 -51 122 -69 206
-74 361 -8 209 21 325 120 482 96 152 278 286 427 316 30 6 64 13 75 15 11 3
67 3 125 1 84 -2 121 -9 185 -32z m-145 -583 c107 -13 204 -42 293 -86 81 -41
163 -112 147 -128 -13 -13 -13 -50 2 -167 20 -161 -17 -273 -121 -372 -71 -67
-128 -101 -211 -123 -132 -35 -294 -15 -464 56 -94 40 -139 73 -181 134 -71
103 -90 231 -63 413 8 58 8 78 0 81 -35 11 22 75 104 115 144 72 314 99 494
77z m80 -950 c0 -5 -15 -10 -32 -11 -18 0 -42 -2 -53 -5 -11 -2 -47 0 -80 4
-59 7 -58 7 45 13 58 3 108 6 113 7 4 1 7 -2 7 -8z m-371 -41 c32 -11 37 -23
21 -49 -8 -12 -14 -10 -40 15 -46 44 -40 54 19 34z m130 -19 c9 0 12 -8 7 -27
-3 -16 -17 -116 -31 -223 -27 -205 -53 -391 -60 -426 -4 -20 -35 -30 -35 -12
0 5 -4 6 -10 3 -5 -3 -10 3 -10 14 0 10 -3 28 -6 38 -5 15 -4 15 4 3 8 -10 10
-1 7 35 -1 28 10 138 26 245 16 107 35 232 41 278 11 77 13 83 32 78 12 -3 27
-6 35 -6z m427 -2 c5 -7 -8 -25 -31 -44 -54 -47 -144 -108 -150 -102 -3 3 -8
35 -12 71 l-6 65 49 7 c27 4 54 8 59 10 25 8 84 4 91 -7z m-237 -135 c16 -124
61 -613 62 -673 1 -28 4 -48 7 -46 2 3 18 -2 34 -10 18 -9 40 -13 55 -9 27 6
27 10 7 -55 -5 -15 0 -21 20 -26 23 -5 25 -9 14 -22 -11 -13 -11 -14 1 -8 9 6
12 4 9 -5 -2 -8 -17 -15 -31 -17 -31 -4 -33 -9 -11 -40 14 -20 14 -22 -1 -22
-9 0 -26 5 -38 11 -16 9 -22 9 -25 0 -2 -6 -10 -17 -17 -25 -8 -7 -11 -16 -8
-20 4 -3 1 -6 -5 -6 -6 0 -18 14 -27 30 -18 34 -31 37 -56 14 -26 -23 -36 -11
-33 42 2 35 0 44 -9 35 -6 -6 -14 -11 -18 -11 -10 0 2 43 14 51 5 4 5 14 -2
27 -17 31 -13 52 9 52 22 0 70 20 70 30 0 3 -4 10 -9 15 -5 6 -15 114 -21 240
-6 127 -17 308 -23 402 -9 118 -9 174 -2 176 13 5 21 -24 34 -130z m-85 50 c4
-43 9 -104 12 -136 5 -54 4 -58 -13 -48 -10 5 -33 25 -50 43 l-33 34 15 84 c8
47 15 88 15 93 0 4 11 7 24 7 23 0 25 -4 30 -77z m-249 -633 c-3 -4 3 -7 13
-6 9 0 16 -3 15 -9 -1 -6 19 -9 49 -6 46 3 50 1 43 -15 -17 -43 -17 -55 1 -68
16 -12 17 -16 4 -32 -9 -11 -10 -15 -2 -10 6 4 12 2 12 -3 0 -6 -13 -11 -30
-11 -33 0 -38 -11 -15 -34 8 -8 15 -19 15 -25 0 -13 -27 -15 -34 -2 -3 5 -15
11 -26 14 -16 4 -23 -1 -30 -19 -12 -31 -38 -31 -50 1 -11 29 -19 31 -45 11
-25 -18 -47 0 -33 27 13 24 0 40 -27 33 -34 -9 -38 8 -10 38 26 28 32 51 15
61 -5 3 -10 14 -10 24 0 13 9 18 38 20 20 1 43 3 50 3 6 1 12 5 12 10 0 4 7 8
15 8 9 0 15 9 16 23 l0 22 10 -23 c5 -13 7 -27 4 -32z m246 -263 c-10 -9 -11
-8 -5 6 3 10 9 15 12 12 3 -3 0 -11 -7 -18z"/>
<path d="M3995 5113 c-55 -12 -85 -26 -85 -39 0 -8 10 -14 26 -14 14 0 22 -4
19 -10 -3 -6 1 -7 9 -4 9 3 16 1 16 -5 0 -6 -9 -11 -20 -11 -15 0 -20 -7 -20
-29 0 -24 -4 -28 -24 -26 -35 4 -39 8 -66 59 -17 35 -29 46 -47 46 -23 0 -27
-7 -24 -46 1 -12 -5 -24 -13 -27 -9 -4 -16 -16 -16 -27 0 -17 6 -20 45 -20 26
0 45 -5 45 -11 0 -6 -6 -9 -12 -6 -7 2 -25 -16 -41 -39 -15 -24 -32 -44 -37
-44 -13 0 -13 -47 1 -55 5 -4 18 0 28 9 17 16 18 15 14 -6 -8 -43 54 -97 80
-71 4 3 0 17 -9 31 -8 13 -14 25 -12 26 2 1 17 6 34 12 31 11 32 10 38 -17 8
-42 43 -59 134 -66 77 -6 81 -5 106 20 21 21 26 36 26 77 0 32 -4 49 -10 45
-5 -3 -10 -1 -10 4 0 38 -16 51 -64 51 -22 0 -36 4 -30 8 41 29 49 86 12 98
-15 4 -17 9 -7 20 6 8 18 14 25 14 20 0 17 24 -4 43 -18 16 -62 20 -107 10z
m25 -63 c-19 -13 -30 -13 -30 0 0 6 10 10 23 10 18 0 19 -2 7 -10z m-10 -70
c0 -5 -7 -7 -15 -4 -8 4 -15 8 -15 10 0 2 7 4 15 4 8 0 15 -4 15 -10z m55 0
c4 -6 -6 -10 -22 -9 -25 0 -26 1 -8 9 11 5 21 9 22 9 1 1 5 -3 8 -9z m-93 -55
c13 -17 9 -27 -8 -21 -8 3 -12 2 -9 -4 3 -6 1 -10 -4 -10 -19 0 -26 -2 -45
-12 -13 -7 -16 -7 -12 1 4 6 0 11 -8 11 -29 0 -17 38 18 57 20 11 52 1 68 -22z
m62 -4 c3 -4 -6 -6 -19 -3 -14 2 -25 6 -25 8 0 8 39 4 44 -5z m-118 -89 c-3
-5 -16 -12 -29 -14 -19 -4 -23 -1 -20 13 5 19 33 30 47 18 4 -4 6 -12 2 -17z
m109 -50 c3 -9 -2 -12 -17 -10 -12 2 -23 8 -25 15 -6 17 35 12 42 -5z"/>
<path d="M3901 4931 c-8 -5 -9 -11 -3 -15 5 -3 12 1 16 9 6 17 6 18 -13 6z"/>
<path d="M3693 4470 c-30 -18 -42 -47 -27 -63 4 -3 21 5 39 18 37 29 71 32
103 9 27 -19 54 -12 46 11 -17 44 -108 58 -161 25z"/>
<path d="M4119 4445 c-29 -16 -44 -44 -31 -57 5 -5 20 0 34 12 36 28 64 25
108 -10 39 -31 57 -27 45 10 -8 26 -66 60 -101 60 -16 -1 -41 -7 -55 -15z"/>
<path d="M3760 4255 c-7 -8 -10 -25 -6 -39 12 -48 76 -41 76 8 0 42 -45 62
-70 31z"/>
<path d="M4120 4229 c-9 -16 -8 -26 5 -45 26 -39 75 -26 75 21 0 45 -60 63
-80 24z"/>
<path d="M3954 4035 c-8 -20 4 -35 27 -35 20 0 23 8 13 34 -8 20 -33 21 -40 1z"/>
<path d="M7771 473 l-52 -58 -30 38 c-17 20 -36 37 -43 37 -7 0 -27 -16 -46
-35 -19 -19 -38 -35 -42 -35 -5 0 -18 16 -29 35 -12 19 -29 35 -38 35 -9 0
-32 -16 -51 -35 -19 -19 -41 -35 -51 -35 -9 0 -39 18 -67 40 -27 22 -58 40
-69 40 -23 0 -93 -70 -93 -93 0 -22 35 -22 52 1 33 43 43 44 87 8 23 -19 51
-38 62 -41 33 -11 84 3 109 30 l23 25 19 -30 c25 -42 76 -42 112 0 l25 30 13
-27 c19 -41 77 -44 114 -7 l27 26 -6 -144 c-4 -80 -10 -166 -13 -191 l-7 -47
31 0 30 0 8 108 c5 59 9 168 9 242 0 163 -7 170 -84 83z"/>
</g>
</svg>
